<svg width="113" height="112" viewBox="0 0 113 112" fill="none" xmlns="http://www.w3.org/2000/svg">
<path d="M17.2571 94.7498C17.2571 95.0832 18.5071 95.4998 21.0071 95.9998C23.3405 96.3332 27.4238 95.6665 33.2571 93.9998C35.9238 93.1665 38.6738 91.9998 41.5071 90.4998C37.8405 87.6665 34.3405 84.4998 31.0071 80.9998C27.5071 77.6665 24.3405 74.1665 21.5071 70.4998C20.0071 73.3332 18.8405 76.0832 18.0071 78.7498C16.3405 84.5832 15.6738 88.6665 16.0071 90.9998C16.5071 93.4998 16.9238 94.7498 17.2571 94.7498ZM30.5071 55.9998C33.8405 60.6665 37.7571 65.2498 42.2571 69.7498C46.7571 74.2498 51.3405 78.1665 56.0071 81.4998C60.6738 78.1665 65.2571 74.2498 69.7571 69.7498C74.2571 65.2498 78.1738 60.6665 81.5071 55.9998C78.1738 51.3331 74.2571 46.7498 69.7571 42.2498C65.2571 37.7498 60.6738 33.8332 56.0071 30.4998C51.3405 33.8332 46.7571 37.7498 42.2571 42.2498C37.7571 46.7498 33.8405 51.3331 30.5071 55.9998ZM41.5071 21.4998C38.6738 20.1665 35.9238 18.9998 33.2571 17.9998C27.4238 16.3332 23.3405 15.6665 21.0071 15.9998C18.5071 16.4998 17.2571 16.9165 17.2571 17.2498C16.9238 17.2498 16.5071 18.4998 16.0071 20.9998C15.6738 23.3332 16.3405 27.4165 18.0071 33.2498C18.8405 35.9165 20.0071 38.6665 21.5071 41.4998C24.3405 37.8331 27.5071 34.3332 31.0071 30.9998C34.3405 27.4998 37.8405 24.3332 41.5071 21.4998ZM56.0071 11.2498C66.5071 5.08315 76.1738 1.41649 85.0071 0.249819C94.0071 -0.750181 101.007 1.16649 106.007 5.99982C110.84 10.9998 112.757 17.9998 111.757 26.9998C110.59 35.8332 106.924 45.4998 100.757 55.9998C106.924 66.4998 110.59 76.1665 111.757 84.9998C112.757 93.9998 110.84 101 106.007 106C101.007 110.833 94.0071 112.75 85.0071 111.75C76.1738 110.583 66.5071 106.916 56.0071 100.75C45.5071 106.916 35.8405 110.583 27.0071 111.75C18.0071 112.75 11.0071 110.833 6.00714 106C1.17381 101 -0.742857 93.9998 0.257143 84.9998C1.42381 76.1665 5.09048 66.4998 11.2571 55.9998C5.09048 45.4998 1.42381 35.8332 0.257143 26.9998C-0.742857 17.9998 1.17381 10.9998 6.00714 5.99982C11.0071 1.16649 18.0071 -0.750181 27.0071 0.249819C35.8405 1.41649 45.5071 5.08315 56.0071 11.2498ZM70.5071 21.4998C74.1738 24.3332 77.6738 27.4998 81.0071 30.9998C84.5071 34.3332 87.6738 37.8331 90.5071 41.4998C92.0071 38.6665 93.1738 35.9165 94.0071 33.2498C95.6738 27.4165 96.3405 23.3332 96.0071 20.9998C95.5071 18.4998 95.0905 17.2498 94.7571 17.2498C94.7571 16.9165 93.5071 16.4998 91.0071 15.9998C88.6738 15.6665 84.5905 16.3332 78.7571 17.9998C76.0905 18.8332 73.3405 19.9998 70.5071 21.4998ZM90.5071 70.4998C87.6738 74.1665 84.5071 77.6665 81.0071 80.9998C77.6738 84.4998 74.1738 87.6665 70.5071 90.4998C73.3405 91.9998 76.0905 93.1665 78.7571 93.9998C84.5905 95.6665 88.6738 96.3332 91.0071 95.9998C93.5071 95.4998 94.7571 95.0832 94.7571 94.7498C95.0905 94.7498 95.5071 93.4998 96.0071 90.9998C96.3405 88.6665 95.6738 84.5832 94.0071 78.7498C93.1738 76.0832 92.0071 73.3332 90.5071 70.4998ZM64.0071 55.9998C64.0071 58.3331 63.2571 60.2498 61.7571 61.7498C60.2571 63.2498 58.3405 63.9998 56.0071 63.9998C53.6738 63.9998 51.7571 63.2498 50.2571 61.7498C48.7571 60.2498 48.0071 58.3331 48.0071 55.9998C48.0071 53.6665 48.7571 51.7498 50.2571 50.2498C51.7571 48.7498 53.6738 47.9998 56.0071 47.9998C58.3405 47.9998 60.2571 48.7498 61.7571 50.2498C63.2571 51.7498 64.0071 53.6665 64.0071 55.9998Z" fill="white"/>
</svg>
