<svg width="108" height="108" viewBox="0 0 108 108" fill="none" xmlns="http://www.w3.org/2000/svg">
<path d="M41.9562 13.708C38.7445 14.7299 35.7518 16.0438 32.9781 17.6496C32.9781 18.0876 32.9781 18.5255 32.9781 18.9635C32.8321 22.9051 31.4453 26.1898 28.8175 28.8175C26.1898 31.4453 22.9051 32.8321 18.9635 32.9781C18.5255 32.9781 18.0876 32.9781 17.6496 32.9781C15.8978 35.7518 14.5839 38.7445 13.708 41.9562C13.1241 43.854 11.9562 45.2409 10.2044 46.1168C8.59854 46.9927 6.84671 47.2117 4.9489 46.7737C3.05109 46.1898 1.66423 45.0219 0.788321 43.2701C-0.0875913 41.6642 -0.233577 39.9124 0.350365 38.0146C1.66423 33.1971 3.63504 28.7445 6.26277 24.6569C5.38686 22.9051 4.9489 21.0073 4.9489 18.9635C5.09489 15.0219 6.48175 11.7372 9.10949 9.10949C11.7372 6.48175 15.0219 5.09489 18.9635 4.9489C21.0073 4.9489 22.9051 5.38686 24.6569 6.26277C28.7445 3.63504 33.1971 1.66423 38.0146 0.350365C39.9124 -0.233577 41.6642 -0.0875913 43.2701 0.788321C44.8759 1.66423 46.0438 3.05109 46.7737 4.9489C47.2117 6.84671 46.9927 8.59854 46.1168 10.2044C45.2409 11.9562 43.854 13.1241 41.9562 13.708ZM69.9854 0.350365V0.131387C74.6569 1.59124 79.1095 3.56204 83.3431 6.0438C85.0949 5.31387 86.9927 4.9489 89.0365 4.9489C92.9781 4.9489 96.2628 6.33577 98.8905 9.10949C101.518 11.7372 102.905 15.0219 103.051 18.9635C103.051 21.0073 102.613 22.9051 101.737 24.6569C104.365 28.7445 106.336 33.1971 107.65 38.0146C108.234 39.9124 108.088 41.6642 107.212 43.2701C106.336 44.8759 104.949 46.0438 103.051 46.7737C101.153 47.2117 99.3285 46.9927 97.5766 46.1168C95.9708 45.2409 94.8759 43.854 94.292 41.9562C93.2701 38.7445 91.9562 35.7518 90.3504 32.9781C89.9124 32.9781 89.4744 32.9781 89.0365 32.9781C85.0949 32.8321 81.8102 31.4453 79.1825 28.8175C76.5547 26.1898 75.1679 22.9051 75.0219 18.9635C75.0219 18.5255 75.0219 18.0876 75.0219 17.6496C72.2482 15.8978 69.2555 14.5839 66.0438 13.708C64.146 13.1241 62.7591 11.9562 61.8832 10.2044C61.0073 8.59854 60.7883 6.84671 61.2263 4.9489C61.8102 3.05109 62.9781 1.66423 64.7299 0.788321C66.3358 -0.0875913 68.0876 -0.233577 69.9854 0.350365ZM13.708 66.0438C14.7299 69.2555 16.0438 72.2482 17.6496 75.0219C18.0876 75.0219 18.5255 75.0219 18.9635 75.0219C22.9051 75.1679 26.1898 76.5547 28.8175 79.1825C31.4453 81.8102 32.8321 85.0949 32.9781 89.0365C32.9781 89.4744 32.9781 89.9124 32.9781 90.3504C35.7518 92.1022 38.7445 93.4161 41.9562 94.292C43.854 94.8759 45.2409 96.0438 46.1168 97.7956C46.9927 99.4015 47.2117 101.153 46.7737 103.051C46.1898 104.949 45.0219 106.336 43.2701 107.212C41.6642 108.088 39.9124 108.234 38.0146 107.65C33.1971 106.336 28.7445 104.365 24.6569 101.737C22.9051 102.613 21.0073 103.051 18.9635 103.051C15.0219 102.905 11.7372 101.518 9.10949 98.8905C6.48175 96.2628 5.09489 92.9781 4.9489 89.0365C4.9489 86.9927 5.38686 85.0949 6.26277 83.3431C3.63504 79.2555 1.66423 74.8029 0.350365 69.9854C-0.233577 68.0876 -0.0875913 66.3358 0.788321 64.7299C1.66423 63.1241 3.05109 61.9562 4.9489 61.2263C6.84671 60.7883 8.59854 61.0073 10.2044 61.8832C11.9562 62.7591 13.1241 64.146 13.708 66.0438ZM107.65 69.9854C106.336 74.8029 104.365 79.2555 101.737 83.3431C102.613 85.0949 103.051 86.9927 103.051 89.0365C102.905 92.9781 101.518 96.2628 98.8905 98.8905C96.2628 101.518 92.9781 102.905 89.0365 103.051C86.9927 103.051 85.0949 102.613 83.3431 101.737C79.1095 104.365 74.6569 106.336 69.9854 107.65C68.0876 108.234 66.3358 108.088 64.7299 107.212C63.1241 106.336 61.9562 104.949 61.2263 103.051C60.7883 101.153 61.0073 99.4015 61.8832 97.7956C62.7591 96.0438 64.146 94.8759 66.0438 94.292C69.2555 93.4161 72.2482 92.1022 75.0219 90.3504C75.0219 89.9124 75.0219 89.4744 75.0219 89.0365C75.1679 85.0949 76.5547 81.8102 79.1825 79.1825C81.8102 76.5547 85.0949 75.1679 89.0365 75.0219C89.4744 75.0219 89.9124 75.0219 90.3504 75.0219C91.9562 72.2482 93.2701 69.2555 94.292 66.0438C94.8759 64.146 95.9708 62.7591 97.5766 61.8832C99.3285 61.0073 101.153 60.7883 103.051 61.2263C104.949 61.9562 106.336 63.1241 107.212 64.7299C108.088 66.3358 108.234 68.0876 107.65 69.9854ZM40.2044 54.219C40.4963 59.9124 43.0511 64.073 47.8686 66.7007C50.4963 68.4526 51.2263 70.7883 50.0584 73.708C48.3066 76.4818 45.9708 77.2847 43.0511 76.1168C38.9635 73.927 35.7518 70.9343 33.4161 67.1387C30.9343 63.3431 29.6934 59.0365 29.6934 54.219C29.8394 47.7956 31.9562 42.3212 36.0438 37.7956L33.635 35.3869C32.9051 34.5109 32.6861 33.635 32.9781 32.7591C33.4161 31.8832 34.146 31.4453 35.1679 31.4453H48.3066C49.7664 31.5912 50.5693 32.3212 50.7153 33.635V46.9927C50.5693 48.0146 50.0584 48.6715 49.1825 48.9635C48.3066 49.4015 47.5037 49.2555 46.7737 48.5255L43.4891 45.2409C41.2993 47.7226 40.2044 50.7153 40.2044 54.219ZM60.5693 41.2993C57.7956 39.5474 56.9927 37.2117 58.1606 34.292C59.9124 31.5182 62.3212 30.7153 65.3869 31.8832C69.3285 34.073 72.5401 37.0657 75.0219 40.8613C77.3577 44.6569 78.5985 48.9635 78.7445 53.781C78.5985 60.3504 76.4818 65.8248 72.3942 70.2044L74.8029 72.8321C75.5328 73.562 75.6788 74.365 75.2409 75.2409C74.9489 76.1168 74.292 76.5547 73.2701 76.5547H59.9124C58.5985 76.4088 57.8686 75.6788 57.7226 74.365V61.0073C57.7226 59.9854 58.1606 59.3285 59.0365 59.0365C59.9124 58.5985 60.7883 58.7445 61.6642 59.4745L64.9489 62.7591C66.9927 60.2774 68.0876 57.2847 68.2336 53.781C67.9416 48.0876 65.3869 43.927 60.5693 41.2993Z" fill="white"/>
</svg>
