<svg width="160" height="128" viewBox="0 0 160 128" fill="none" xmlns="http://www.w3.org/2000/svg">
<path d="M17.5 30.25L44.75 1.5C45.5833 0.5 46.6667 0 48 0C49.3333 0 50.5 0.5 51.5 1.5L78.5 30.25C79.5 31.4167 80 32.75 80 34.25C79.6667 37.75 77.75 39.6667 74.25 40H68L86.75 62.5C87.5833 63.5 88 64.75 88 66.25C87.6667 69.75 85.75 71.6667 82.25 72H76L94.75 94.5C95.5833 95.5 96 96.75 96 98.25C95.6667 101.75 93.75 103.667 90.25 104H56V120C56 122.333 55.25 124.25 53.75 125.75C52.25 127.25 50.3333 128 48 128C45.6667 128 43.75 127.25 42.25 125.75C40.75 124.25 40 122.333 40 120V104H6C2.33333 103.667 0.333333 101.75 0 98.25C0 96.75 0.416667 95.5 1.25 94.5L20 72H14C10.3333 71.6667 8.33333 69.75 8 66.25C8 64.75 8.41667 63.5 9.25 62.5L28 40H21.75C18.25 39.6667 16.3333 37.75 16 34.25C16 32.75 16.5 31.4167 17.5 30.25ZM85.5 26.25L108.75 1.5C109.583 0.5 110.667 0 112 0C113.333 0 114.5 0.5 115.5 1.5L142.5 30.25C143.5 31.4167 144 32.75 144 34.25C143.667 37.75 141.75 39.6667 138.25 40H132L150.75 62.5C151.583 63.5 152 64.75 152 66.25C151.667 69.75 149.75 71.6667 146.25 72H140L158.75 94.5C159.583 95.5 160 96.75 160 98.25C159.667 101.75 157.75 103.667 154.25 104H120V120C120 122.333 119.25 124.25 117.75 125.75C116.25 127.25 114.333 128 112 128C109.667 128 107.75 127.25 106.25 125.75C104.75 124.25 104 122.333 104 120V98C104 94.6667 102.917 91.75 100.75 89.25L90.75 77C94.0833 74.3333 95.8333 70.75 96 66.25C96 62.75 94.9167 59.75 92.75 57.25L82.75 45.25C86.0833 42.4167 87.8333 38.75 88 34.25C88 31.25 87.1667 28.5833 85.5 26.25Z" fill="white"/>
</svg>
