<svg width="112" height="128" viewBox="0 0 112 128" fill="none" xmlns="http://www.w3.org/2000/svg">
<path d="M104 0C106.333 0 108.25 0.75 109.75 2.25C111.25 3.75 112 5.66667 112 8C111.833 15.5 110.167 22.25 107 28.25C103.833 34.25 99.75 39.75 94.75 44.75C87.4167 51.5833 79.25 58 70.25 64L69.75 64.5C66.75 66.5 63.75 68.5 60.75 70.5L60.5 70.75C60 70.9167 59.5833 71.1667 59.25 71.5C58.25 72.1667 57.1667 72.9167 56 73.75C50.6667 77.0833 45.75 80.5 41.25 84H70.75C68.4167 82.1667 65.9167 80.3333 63.25 78.5L65 77.25L65.75 76.75C66.0833 76.4167 66.5 76.1667 67 76C70.3333 73.6667 73.75 71.3333 77.25 69C83.5833 73.5 89.4167 78.25 94.75 83.25C99.75 88.25 103.833 93.75 107 99.75C110.167 105.75 111.833 112.5 112 120C112 122.333 111.25 124.25 109.75 125.75C108.25 127.25 106.333 128 104 128C101.667 128 99.75 127.25 98.25 125.75C96.75 124.25 96 122.333 96 120H16C16 122.333 15.25 124.25 13.75 125.75C12.25 127.25 10.3333 128 8 128C5.66667 128 3.75 127.25 2.25 125.75C0.75 124.25 0 122.333 0 120C0.166667 112.5 1.83333 105.75 5 99.75C8.16667 93.75 12.25 88.25 17.25 83.25C24.5833 76.4167 32.75 70 41.75 64C32.75 58 24.5833 51.5833 17.25 44.75C12.25 39.75 8.16667 34.25 5 28.25C1.83333 22.25 0.166667 15.5 0 8C0 5.66667 0.75 3.75 2.25 2.25C3.75 0.75 5.66667 0 8 0C10.3333 0 12.25 0.75 13.75 2.25C15.25 3.75 16 5.66667 16 8H96C96 5.66667 96.75 3.75 98.25 2.25C99.75 0.75 101.667 0 104 0ZM84.75 96H27.25C24.75 98.6667 22.6667 101.333 21 104H91C89.3333 101.333 87.25 98.6667 84.75 96ZM27.25 32H84.75C87.25 29.3333 89.3333 26.6667 91 24H21C22.6667 26.6667 24.75 29.3333 27.25 32ZM41.25 44C45.9167 47.5 50.8333 51 56 54.5C61.3333 51 66.25 47.5 70.75 44H41.25Z" fill="white"/>
</svg>
