<svg width="128" height="84" viewBox="0 0 128 84" fill="none" xmlns="http://www.w3.org/2000/svg">
<path d="M17.8304 1.34043C20.2026 -0.446809 22.5748 -0.446809 24.9471 1.34043C27.3193 3.42553 30.0622 5.21277 33.1757 6.70213C36.2893 8.19149 39.477 8.93617 42.7388 8.93617C46.0006 8.93617 49.1883 8.19149 52.3018 6.70213C55.2671 5.21277 58.01 3.42553 60.5305 1.34043C62.9027 -0.446809 65.2749 -0.446809 67.6472 1.34043C70.0194 3.42553 72.7623 5.21277 75.8758 6.70213C78.9894 8.19149 82.1771 8.93617 85.4389 8.93617C88.7007 8.93617 91.8884 8.19149 95.0019 6.70213C97.9672 5.21277 100.71 3.42553 103.231 1.34043C105.603 -0.446809 107.975 -0.446809 110.347 1.34043C114.35 4.91489 118.872 7.29787 123.913 8.48936C127.027 9.53191 128.361 11.6915 127.917 14.9681C126.879 18.0957 124.803 19.4362 121.689 18.9894C115.018 17.0532 110.051 14.7447 106.789 12.0638C100.414 16.8298 93.2969 19.3617 85.4389 19.6596C77.5809 19.3617 70.4642 16.8298 64.0888 12.0638C57.7135 16.8298 50.5968 19.3617 42.7388 19.6596C34.8808 19.3617 27.7641 16.8298 21.3887 12.0638C17.9787 14.7447 13.0118 17.0532 6.48817 18.9894C3.22636 19.4362 1.07653 18.0957 0.0386776 14.9681C-0.257851 11.6915 1.15066 9.53191 4.26421 8.48936C9.30519 7.14894 13.8273 4.76596 17.8304 1.34043ZM17.8304 65.6809C20.2026 63.8936 22.5748 63.8936 24.9471 65.6809C27.3193 67.766 30.0622 69.5532 33.1757 71.0426C36.2893 72.5319 39.477 73.2766 42.7388 73.2766C46.0006 73.2766 49.1883 72.5319 52.3018 71.0426C55.2671 69.5532 58.01 67.766 60.5305 65.6809C62.9027 63.8936 65.2749 63.8936 67.6472 65.6809C70.0194 67.766 72.7623 69.5532 75.8758 71.0426C78.9894 72.5319 82.1771 73.2766 85.4389 73.2766C88.7007 73.2766 91.8884 72.5319 95.0019 71.0426C97.9672 69.5532 100.71 67.766 103.231 65.6809C105.603 63.8936 107.975 63.8936 110.347 65.6809C114.35 69.2553 118.872 71.6383 123.913 72.8298C127.027 73.8723 128.361 76.0319 127.917 79.3085C126.879 82.4362 124.803 83.7766 121.689 83.3298C115.018 81.3936 110.051 79.0851 106.789 76.4043C100.414 81.1702 93.2969 83.7021 85.4389 84C77.5809 83.7021 70.4642 81.1702 64.0888 76.4043C57.7135 81.1702 50.5968 83.7021 42.7388 84C34.8808 83.7021 27.7641 81.1702 21.3887 76.4043C17.9787 79.0851 13.0118 81.3936 6.48817 83.3298C3.22636 83.7766 1.07653 82.4362 0.0386776 79.3085C-0.257851 76.0319 1.15066 73.8723 4.26421 72.8298C9.30519 71.4894 13.8273 69.1064 17.8304 65.6809ZM24.9471 33.5106C27.3193 35.5957 30.0622 37.383 33.1757 38.8723C36.2893 40.3617 39.477 41.1064 42.7388 41.1064C46.0006 41.1064 49.1883 40.3617 52.3018 38.8723C55.2671 37.383 58.01 35.5957 60.5305 33.5106C62.9027 31.7234 65.2749 31.7234 67.6472 33.5106C70.0194 35.5957 72.7623 37.383 75.8758 38.8723C78.9894 40.3617 82.1771 41.1064 85.4389 41.1064C88.7007 41.1064 91.8884 40.3617 95.0019 38.8723C97.9672 37.383 100.71 35.5957 103.231 33.5106C105.603 31.7234 107.975 31.7234 110.347 33.5106C114.35 37.0851 118.872 39.4681 123.913 40.6596C127.027 41.7021 128.361 43.8617 127.917 47.1383C126.879 50.266 124.803 51.6064 121.689 51.1596C115.018 49.2234 110.051 46.9149 106.789 44.234C100.414 49 93.2969 51.5319 85.4389 51.8298C77.5809 51.5319 70.4642 49 64.0888 44.234C57.7135 49 50.5968 51.5319 42.7388 51.8298C34.8808 51.5319 27.7641 49 21.3887 44.234C17.9787 46.9149 13.0118 49.2234 6.48817 51.1596C3.22636 51.6064 1.07653 50.266 0.0386776 47.1383C-0.257851 43.8617 1.15066 41.7021 4.26421 40.6596C9.30519 39.3191 13.8273 36.9362 17.8304 33.5106C20.2026 31.7234 22.5748 31.7234 24.9471 33.5106Z" fill="white"/>
</svg>
