<svg width="53" height="177" viewBox="0 0 53 177" fill="none" xmlns="http://www.w3.org/2000/svg">
<path d="M18.321 89.0153C3.01439 75 -0.26034 47.8321 0.0156198 36C3.14316 46.5344 7.92649 54.8931 29.9306 74.5036C51.9346 94.114 53 125.427 53 141C52.3561 115.924 37.4542 106.534 18.321 89.0153Z" fill="#06A64F" fill-opacity="0.8"/>
<path d="M18.321 124.52C3.01439 110.371 -0.26034 82.9447 0.0156198 71C3.14316 81.6347 7.92649 90.0731 29.9306 109.87C51.9346 129.667 53 161.279 53 177C52.3561 151.685 37.4542 142.206 18.321 124.52Z" fill="#06A64F" fill-opacity="0.8"/>
<path d="M18.321 53.5202C3.01439 39.3714 -0.26034 11.9447 0.0156198 0C3.14316 10.6347 7.92649 19.0731 29.9306 38.8703C51.9346 58.6675 53 90.2792 53 106C52.3561 80.6848 37.4542 71.2061 18.321 53.5202Z" fill="#06A64F" fill-opacity="0.8"/>
</svg>
