<svg width="129" height="114" viewBox="0 0 129 114" fill="none" xmlns="http://www.w3.org/2000/svg">
<path d="M90.8245 0H115.775C119.042 0.296875 120.824 2.07812 121.121 5.34375V30.2812C120.824 33.5469 119.042 35.3281 115.775 35.625C112.508 35.3281 110.725 33.5469 110.428 30.2812V18.0352L74.785 48.5391C72.4088 50.3203 70.0326 50.3203 67.6563 48.5391L42.2605 26.2734L8.17652 48.9844C5.35475 50.4688 2.90427 49.9492 0.825077 47.4258C-0.660062 44.6055 -0.140263 42.1562 2.38447 40.0781L39.81 15.1406C42.0377 13.8047 44.1911 13.9531 46.2703 15.5859L71.2207 37.4062L102.631 10.6875H90.8245C87.5572 10.3906 85.775 8.60938 85.478 5.34375C85.775 2.07812 87.5572 0.296875 90.8245 0ZM44.4882 96.1875V60.5625C44.3396 59.5234 43.7456 58.9297 42.706 58.7812C41.6664 58.9297 41.0723 59.5234 40.9238 60.5625V96.1875C41.0723 97.2266 41.6664 97.8203 42.706 97.9688C43.7456 97.8203 44.3396 97.2266 44.4882 96.1875ZM42.706 49.875C45.6763 50.0234 48.201 51.0625 50.2802 52.9922C52.2109 55.0703 53.2505 57.5938 53.399 60.5625V96.1875C53.2505 99.1562 52.2109 101.68 50.2802 103.758C48.201 105.688 45.6763 106.727 42.706 106.875C39.7357 106.727 37.211 105.688 35.1318 103.758C33.2011 101.68 32.1615 99.1562 32.013 96.1875V60.5625C32.1615 57.5938 33.2011 55.0703 35.1318 52.9922C37.211 51.0625 39.7357 50.0234 42.706 49.875ZM15.9735 96.1875V81.9375C15.825 80.8984 15.2309 80.3047 14.1913 80.1562C13.1517 80.3047 12.5577 80.8984 12.4092 81.9375V96.1875C12.5577 97.2266 13.1517 97.8203 14.1913 97.9688C15.2309 97.8203 15.825 97.2266 15.9735 96.1875ZM14.1913 71.25C17.1616 71.3984 19.6863 72.4375 21.7655 74.3672C23.6962 76.4453 24.7358 78.9688 24.8843 81.9375V96.1875C24.7358 99.1562 23.6962 101.68 21.7655 103.758C19.6863 105.688 17.1616 106.727 14.1913 106.875C11.2211 106.727 8.69631 105.688 6.61712 103.758C4.68644 101.68 3.64684 99.1562 3.49833 96.1875V81.9375C3.64684 78.9688 4.68644 76.4453 6.61712 74.3672C8.69631 72.4375 11.2211 71.3984 14.1913 71.25ZM96.171 114C90.379 114 85.0325 112.59 80.1315 109.77C75.2305 106.949 71.2949 103.016 68.3246 97.9688C65.5029 92.9219 64.092 87.5781 64.092 81.9375C64.092 76.2969 65.5029 70.9531 68.3246 65.9062C71.2949 60.8594 75.2305 56.9258 80.1315 54.1055C85.0325 51.2852 90.379 49.875 96.171 49.875C101.963 49.875 107.31 51.2852 112.211 54.1055C117.111 56.9258 121.047 60.8594 124.017 65.9062C126.839 70.9531 128.25 76.2969 128.25 81.9375C128.25 87.5781 126.839 92.9219 124.017 97.9688C121.047 103.016 117.111 106.949 112.211 109.77C107.31 112.59 101.963 114 96.171 114ZM90.8245 75.4805C90.8245 75.0352 90.8988 74.8125 91.0473 74.8125C91.1958 74.5156 91.4928 74.2188 91.9384 73.9219C93.275 73.3281 94.6859 73.0312 96.171 73.0312C97.9532 73.1797 99.8839 73.4766 101.963 73.9219C104.191 74.2188 105.602 73.4023 106.196 71.4727C106.641 69.2461 105.824 67.7617 103.745 67.0195C102.409 66.7227 101.072 66.4258 99.7353 66.1289V64.125C99.4383 61.8984 98.2502 60.7109 96.171 60.5625C93.9433 60.7109 92.7552 61.8984 92.6067 64.125V66.3516C91.2701 66.5 89.9334 66.9453 88.5968 67.6875C85.478 69.0234 83.8444 71.7695 83.6958 75.9258C84.2899 79.4883 85.9235 81.7891 88.5968 82.8281C90.676 83.8672 92.7552 84.6094 94.8344 85.0547L95.2799 85.2773C97.5076 85.8711 99.2155 86.4648 100.404 87.0586C101.295 87.6523 101.666 88.0977 101.518 88.3945C101.518 88.8398 101.443 89.1367 101.295 89.2852C101.146 89.582 100.849 89.8047 100.404 89.9531C99.2155 90.5469 97.8047 90.8438 96.171 90.8438C94.2403 90.6953 92.0869 90.1758 89.7106 89.2852C89.2651 89.1367 88.8196 88.9883 88.374 88.8398C86.2948 88.3945 84.8097 89.2109 83.9186 91.2891C83.4731 93.3672 84.2156 94.8516 86.1463 95.7422C86.2948 95.7422 86.3691 95.7422 86.3691 95.7422C86.6661 95.8906 86.9631 96.0391 87.2602 96.1875C88.8938 96.6328 90.676 97.0781 92.6067 97.5234V100.195C92.7552 102.273 93.9433 103.461 96.171 103.758C98.3987 103.461 99.5868 102.273 99.7353 100.195V97.7461C101.072 97.4492 102.409 97.0039 103.745 96.4102C106.864 94.9258 108.498 92.1797 108.646 88.1719C108.201 84.6094 106.715 82.1602 104.191 80.8242C101.815 79.6367 99.5126 78.8203 97.2849 78.375C97.1363 78.375 96.9878 78.3008 96.8393 78.1523C94.7601 77.707 93.1265 77.1875 91.9384 76.5938C91.0473 76 90.676 75.6289 90.8245 75.4805Z" fill="#119A48"/>
</svg>
