<svg width="128" height="117" viewBox="0 0 128 117" fill="none" xmlns="http://www.w3.org/2000/svg">
<path d="M54.8258 64.5242C59.6571 64.7328 64.4847 64.9413 69.3161 65.1536C74.1735 65.3696 77.838 69.2616 77.7299 74.092C77.6255 78.7512 73.7001 82.55 68.8799 82.4233C62.9787 82.2669 57.0849 81.9317 51.1873 81.6748C50.6766 81.6524 50.1659 81.6189 49.6552 81.6226C48.5704 81.6301 47.8434 82.1254 47.8285 83.2651C47.8136 84.401 48.5107 84.9112 49.603 84.9633C52.8537 85.1123 56.1044 85.2725 59.3551 85.414C62.4195 85.5481 65.4838 85.6859 68.5519 85.7827C72.578 85.9056 75.8772 84.3786 78.4345 81.28C78.8334 80.7958 79.2957 80.4644 79.8362 80.185C91.471 74.1367 103.102 68.0772 114.737 62.0289C119.281 59.6677 124.47 61.1499 126.752 65.4404C129.056 69.7792 127.33 74.9784 122.741 77.3732C105.402 86.4121 88.0413 95.4064 70.7215 104.486C67.5826 106.132 64.4176 106.118 61.1184 105.417C53.7708 103.857 46.4194 102.3 39.0754 100.725C37.04 100.289 35.1015 100.419 33.3233 101.585C32.5218 102.11 32.0819 102.114 31.5637 101.105C27.2207 92.6615 22.8106 84.252 18.3931 75.8499C17.9755 75.0566 17.9233 74.6656 18.8628 74.1888C24.6857 71.2243 30.4789 68.2076 36.2571 65.1536C37.9533 64.256 39.6942 63.8724 41.6067 63.9693C46.0167 64.1927 50.4306 64.3417 54.8407 64.5205C54.8407 64.5205 54.8407 64.5242 54.8407 64.5279L54.8258 64.5242Z" fill="#119A48"/>
<path d="M90.3675 17.6236C90.375 27.333 82.4308 35.277 72.7346 35.2472C63.0905 35.2211 55.165 27.3144 55.1426 17.7019C55.1165 8.00741 63.042 0.0298782 72.7234 8.3538e-05C82.4047 -0.0297111 90.36 7.9143 90.3638 17.6236H90.3675Z" fill="#119A48"/>
<path d="M32.861 110.941C32.9281 111.689 32.5441 111.965 32.1266 112.185C29.1667 113.726 26.1993 115.246 23.2468 116.795C22.1321 117.38 21.7743 116.616 21.3679 115.838C17.3865 108.199 13.4014 100.568 9.4163 92.9334C6.43771 87.2277 3.45912 81.5221 0.484265 75.8164C-0.287409 74.3304 -0.220307 74.1442 1.28203 73.362C3.95121 71.9729 6.64274 70.6172 9.28582 69.1796C10.3259 68.6135 10.9335 68.729 11.5002 69.8202C18.4825 83.2539 25.4947 96.6727 32.4957 110.099C32.6634 110.423 32.7865 110.773 32.861 110.948V110.941Z" fill="#119A48"/>
<path d="M86.647 33.3739C90.1513 30.0704 92.5968 26.1524 93.3759 21.348C94.6024 13.7727 92.3768 7.34447 86.7813 2.08199C86.5874 1.89949 86.3861 1.717 86.1587 1.51216C86.565 1.19187 86.908 1.38181 87.2323 1.4712C97.2641 4.21603 105.887 9.33327 113.137 16.7894C113.853 17.5268 113.715 17.8806 113.082 18.5324C106.002 25.8097 97.5884 30.8376 87.8325 33.6383C87.6573 33.6904 87.4672 33.6867 87.2808 33.709C86.9639 33.7984 86.6247 33.9325 86.647 33.3739Z" fill="#119A48"/>
<path d="M59.3924 1.3334C49.1743 10.3128 49.4464 25.2623 59.3328 33.8543C58.8183 34.0666 58.4157 33.8022 58.0168 33.6941C48.0857 30.9493 39.5563 25.8656 32.4137 18.4467C31.9551 17.97 31.5451 17.6795 32.2534 16.9384C39.601 9.29603 48.3989 4.13782 58.6245 1.37436C58.796 1.32595 58.9898 1.35202 59.3924 1.32967V1.3334Z" fill="#119A48"/>
<path d="M86.647 33.3739C86.7701 33.6532 87.0571 33.6159 87.2808 33.709C86.949 34.0144 86.5017 34.1113 86.1848 33.8692C86.0282 33.75 86.401 33.4744 86.647 33.3739Z" fill="#2B2B2B"/>
<path d="M79.9406 22.1375C79.9406 25.0574 78.2369 27.3926 75.4634 28.4019C74.6246 28.7073 74.2965 29.0871 74.4009 29.9735C74.4867 30.7072 74.4307 31.4558 74.4046 32.2007C74.3711 33.2063 73.7635 33.7649 72.8278 33.8096C71.8734 33.8543 71.0048 33.2212 71.1465 32.3385C71.5789 29.7017 70.4382 28.3497 68.1269 27.2659C66.4941 26.4987 65.7597 24.7222 65.6367 22.8452C65.5695 21.7949 65.8976 20.9718 67.0607 20.834C68.1977 20.6999 68.7271 21.348 68.9545 22.4131C69.5957 25.4149 73.044 26.6105 75.4261 24.6813C77.0477 23.3703 76.9844 21.6161 75.1651 20.6515C73.2863 19.6534 71.2956 18.8713 69.3981 17.9067C66.2667 16.3201 65.1036 14.2866 65.7671 11.4859C66.3226 9.13588 67.8846 7.60518 70.1362 6.83051C70.8818 6.57354 71.1577 6.24579 71.0868 5.47113C71.016 4.68902 71.0272 3.89201 71.0868 3.10618C71.1688 2.08944 71.7728 1.4265 72.7942 1.4563C73.8007 1.48237 74.3972 2.10806 74.4084 3.17322C74.4084 3.26633 74.4233 3.35943 74.4084 3.45254C74.1139 5.38175 74.4606 6.72623 76.66 7.50462C78.5724 8.18245 79.5491 10.0372 79.8846 12.0781C80.0934 13.3556 79.5529 14.2792 78.5463 14.4505C77.4913 14.6293 76.8241 14.0259 76.578 12.6628C76.2947 11.1135 75.2211 10.067 73.6031 9.75784C71.9107 9.43383 70.0952 10.1638 69.3459 11.4673C68.66 12.6591 68.8464 13.7466 70.0766 14.4319C71.6087 15.2848 73.2415 15.9626 74.8296 16.7112C76.2164 17.3667 77.6069 18.0147 78.6656 19.173C79.5156 20.1003 79.9182 21.2139 79.9368 22.1413L79.9406 22.1375Z" fill="white"/>
</svg>
