<svg width="128" height="128" viewBox="0 0 128 128" fill="none" xmlns="http://www.w3.org/2000/svg">
<path d="M76.75 51.75C87.4167 50.4167 96.3333 46.0833 103.5 38.75C110.5 31.5833 114.583 22.6667 115.75 12H114C104.333 12.1667 95.75 14.9167 88.25 20.25C80.9167 25.5833 75.6667 32.6667 72.5 41.5C70.3333 37.1667 67.6667 33.1667 64.5 29.5C69.3333 20.6667 76.0833 13.5833 84.75 8.25C93.4167 2.91667 103.167 0.166667 114 0H120C122.333 0 124.25 0.75 125.75 2.25C127.25 3.75 128 5.66667 128 8C127.667 22.5 123 34.8333 114 45C105 55.1667 93.5 61.3333 79.5 63.5C79 59.5 78.0833 55.5833 76.75 51.75ZM12 28V32C12.3333 44.5 16.6667 54.8333 25 63C33.1667 71.3333 43.5 75.6667 56 76H58V72C57.6667 59.5 53.3333 49.1667 45 41C36.8333 32.6667 26.5 28.3333 14 28H12ZM70 72V122C69.6667 125.667 67.6667 127.667 64 128C60.3333 127.667 58.3333 125.667 58 122V88H56C45.5 87.8333 36.0833 85.25 27.75 80.25C19.25 75.4167 12.5833 68.75 7.75 60.25C2.75 51.9167 0.166667 42.5 0 32V24C0 21.6667 0.75 19.75 2.25 18.25C3.75 16.75 5.66667 16 8 16H14C24.5 16.1667 33.9167 18.75 42.25 23.75C50.75 28.5833 57.4167 35.25 62.25 43.75C67.25 52.0833 69.8333 61.5 70 72Z" fill="#119A48"/>
</svg>
