<svg width="129" height="77" viewBox="0 0 129 77" fill="none" xmlns="http://www.w3.org/2000/svg">
<path d="M64.757 4.21021C68.3657 1.4034 72.3755 0 76.7861 0C80.5285 0 84.0036 1.00243 87.2114 3.00729L101.646 12.4301L102.448 12.8311H102.649H103.451H118.688C121.361 12.9648 123.633 13.9004 125.504 15.6379C127.242 17.5091 128.177 19.7813 128.311 22.4544V48.1166C128.177 50.7898 127.242 53.062 125.504 54.9332C123.633 56.6707 121.361 57.6063 118.688 57.74H110.267L74.7813 25.0608L78.9915 21.853C80.4617 20.3827 80.6622 18.8457 79.5929 17.2418C78.2564 15.7716 76.7193 15.5711 74.9818 16.6403L55.1337 32.2782C53.2625 33.6148 51.3244 34.0826 49.3196 33.6817C47.181 33.4143 45.4435 32.4119 44.1069 30.6744C42.904 28.9368 42.3694 27.0656 42.503 25.0608C42.7704 23.0559 43.7728 21.3852 45.5103 20.0486L64.757 4.21021ZM69.3682 29.271L96.2333 53.9307C98.2382 55.8019 99.3074 58.0073 99.4411 60.5468C99.5747 63.0863 98.7059 65.3584 96.8347 67.3633C95.2309 69.2345 93.226 70.3038 90.8202 70.5711C88.548 70.8384 86.4095 70.3038 84.4046 68.9672C84.0036 70.1701 83.3354 71.2394 82.3998 72.175C80.5285 74.1798 78.3232 75.2491 75.7837 75.3827C73.2442 75.5164 70.9721 74.6476 68.9672 72.7764L65.5589 69.7691C65.158 71.2394 64.356 72.5759 63.1531 73.7789C61.2819 75.7837 59.0765 76.853 56.5371 76.9866C53.9976 77.1203 51.7254 76.2515 49.7205 74.3803L31.2758 57.74H9.62333C6.95018 57.6063 4.67801 56.6707 2.8068 54.9332C1.06926 53.062 0.133657 50.7898 0 48.1166V22.4544C0.133657 19.7813 1.06926 17.5091 2.8068 15.6379C4.67801 13.9004 6.95018 12.9648 9.62333 12.8311H25.6622L40.0972 3.20778C43.305 1.06926 46.8469 0 50.723 0C53.2625 0 55.7351 0.534629 58.1409 1.60389L41.3001 15.0365C38.3597 17.5759 36.6889 20.6501 36.288 24.2588C35.7533 27.8676 36.6221 31.2758 38.8943 34.4836C41.4338 37.6914 44.5747 39.5626 48.3171 40.0972C52.1932 40.6318 55.7351 39.6962 58.9429 37.2904L69.3682 29.271Z" fill="#119A48"/>
</svg>
