<svg width="128" height="112" viewBox="0 0 128 112" fill="none" xmlns="http://www.w3.org/2000/svg">
<path d="M68 16H94C99.3333 16 104.167 14.6667 108.5 12C112.833 9.33333 116.25 5.75 118.75 1.25C119.25 0.416667 119.917 0 120.75 0C121.75 0 122.417 0.416667 122.75 1.25C126.25 10.4167 128 20.4167 128 31.25C127.833 44.75 125.083 56.9167 119.75 67.75C114.583 78.75 107.5 87.5 98.5 94C89.5 100.5 79.4167 103.833 68.25 104H68C57.6667 103.833 48.6667 100.75 41 94.75C33.3333 88.75 28.1667 80.9167 25.5 71.25C16.8333 79.25 12.3333 89.5 12 102V106C11.6667 109.667 9.66667 111.667 6 112C2.33333 111.667 0.333333 109.667 0 106V102C0.166667 92.5 2.33333 83.8333 6.5 76C10.8333 68.3333 16.6667 62 24 57C29.5 53.3333 35.5 50.75 42 49.25C45.8333 48.4167 49.8333 48 54 48H76C78.5 47.8333 79.8333 46.5 80 44C79.8333 41.5 78.5 40.1667 76 40H54C43.8333 40.1667 34.5 42.4167 26 46.75C29 37.5833 34.25 30.25 41.75 24.75C49.25 19.0833 58 16.1667 68 16Z" fill="white"/>
</svg>
