<svg width="128" height="112" viewBox="0 0 128 112" fill="none" xmlns="http://www.w3.org/2000/svg">
<path d="M124.974 14.2742L84.9909 46.2663C81.8256 48.5991 78.577 48.6824 75.2451 46.5162L48.2568 26.2713L13.0221 54.2643C11.1896 55.5973 9.19046 56.1805 7.02473 56.0139C5.0256 55.6806 3.27636 54.6809 1.77701 53.0146C0.444252 51.1818 -0.138829 49.1822 0.0277657 47.0161C0.360954 45.0166 1.36052 43.267 3.02646 41.7674L43.0091 9.77535C46.1744 7.4426 49.423 7.35929 52.7549 9.52541L79.7432 30.0203L114.978 1.77734C116.81 0.444334 118.81 -0.138854 120.975 0.0277709C122.974 0.361022 124.724 1.36077 126.223 3.02703C127.556 4.85991 128.139 6.85941 127.972 9.02554C127.639 11.025 126.639 12.7746 124.974 14.2742ZM40.0104 56.0139C40.0104 53.6811 40.7601 51.7649 42.2594 50.2653C43.7588 48.7657 45.6746 48.0159 48.0069 48.0159C50.3393 48.0159 52.2551 48.7657 53.7544 50.2653C55.2538 51.7649 56.0035 53.6811 56.0035 56.0139V104.002C56.0035 106.335 55.2538 108.251 53.7544 109.751C52.2551 111.25 50.3393 112 48.0069 112C45.6746 112 43.7588 111.25 42.2594 109.751C40.7601 108.251 40.0104 106.335 40.0104 104.002V56.0139ZM8.02429 80.0079C8.02429 77.6752 8.77397 75.759 10.2733 74.2594C11.7727 72.7597 13.6885 72.0099 16.0208 72.0099C18.3531 72.0099 20.269 72.7597 21.7683 74.2594C23.2677 75.759 24.0174 77.6752 24.0174 80.0079V104.002C24.0174 106.335 23.2677 108.251 21.7683 109.751C20.269 111.25 18.3531 112 16.0208 112C13.6885 112 11.7727 111.25 10.2733 109.751C8.77397 108.251 8.02429 106.335 8.02429 104.002V80.0079ZM79.9931 64.0119C82.3254 64.0119 84.2412 64.7617 85.7406 66.2613C87.2399 67.761 87.9896 69.6772 87.9896 72.0099V104.002C87.9896 106.335 87.2399 108.251 85.7406 109.751C84.2412 111.25 82.3254 112 79.9931 112C77.6607 112 75.7449 111.25 74.2456 109.751C72.7462 108.251 71.9965 106.335 71.9965 104.002V72.0099C71.9965 69.6772 72.7462 67.761 74.2456 66.2613C75.7449 64.7617 77.6607 64.0119 79.9931 64.0119ZM103.983 56.0139C103.983 53.6811 104.732 51.7649 106.232 50.2653C107.731 48.7657 109.647 48.0159 111.979 48.0159C114.311 48.0159 116.227 48.7657 117.727 50.2653C119.226 51.7649 119.976 53.6811 119.976 56.0139V104.002C119.976 106.335 119.226 108.251 117.727 109.751C116.227 111.25 114.311 112 111.979 112C109.647 112 107.731 111.25 106.232 109.751C104.732 108.251 103.983 106.335 103.983 104.002V56.0139Z" fill="#119A48"/>
</svg>
