<?xml version="1.0" encoding="utf-8"?>
<!-- Generator: Adobe Illustrator 25.0.0, SVG Export Plug-In . SVG Version: 6.00 Build 0)  -->
<svg version="1.1" id="Capa_1" xmlns="http://www.w3.org/2000/svg" xmlns:xlink="http://www.w3.org/1999/xlink" x="0px" y="0px"
	 width="100px" height="100px" viewBox="0 0 100 100" enable-background="new 0 0 100 100" xml:space="preserve">
<g>
	<g>
		<path fill="#FBA81A" d="M80.7,33.3c-0.3,0-0.6,0-0.9,0.1C76.6,20.2,64.9,10.3,51,10.3c-14,0-25.7,9.9-28.9,23.1
			c-0.3,0-0.6-0.1-0.8-0.1c-3.1,0-5.6,2.5-5.6,5.6v6.7c0,3.1,2.5,5.6,5.6,5.6c0.7,0,1.3-0.1,1.9-0.4C24.9,55,28.9,58,33.6,58
			c1.2,0,2.2-1,2.2-2.2c0-1.2-1-2.2-2.2-2.2c-3.7,0-6.7-3-6.7-6.7v-7.1C27.4,26.5,38,15.9,51,15.9c13.3,0,24.1,11.1,24.1,24.7
			c0,0.1,0,0.1,0,0.2v4.9c0,3.1,2.5,5.6,5.6,5.6s5.6-2.5,5.6-5.6v-6.7C86.3,35.8,83.8,33.3,80.7,33.3z"/>
		<path fill="#FBA81A" d="M69.4,64.7h-6.6c-1.5,0-2.8,0.7-3.7,1.9l-4.6,6.6c-1.8,2.6-5.6,2.6-7.4,0l-4.4-6.5c-0.8-1.2-2.2-2-3.7-2
			h-6.5c-8.3,0-15.1,6.8-15.1,15.1v6.7c0,1.2,1,2.2,2.2,2.2h62.5c1.2,0,2.2-1,2.2-2.2v-6.7C84.5,71.4,77.7,64.7,69.4,64.7z M51,59.1
			c10.2,0,18.5-8.3,18.5-18.5c0-10.2-8.3-18.5-18.5-18.5c-10.2,0-18.5,8.3-18.5,18.5C32.5,50.8,40.7,59.1,51,59.1z"/>
	</g>
</g>
</svg>
