<svg xmlns="http://www.w3.org/2000/svg" width="200" height="200" viewBox="0 0 200 200" fill="none"><g clip-path="url(#clip0_2023_4131)"><path d="M200 100.104C200 155.255 155.255 200.208 99.8959 200.208C44.7451 200 0 155.255 0 100.104C0 44.7451 44.7451 0 100.104 0C155.255 0 200 44.7451 200 100.104Z" fill="white"></path><path d="M6.2435 100.104C6.2435 151.925 48.283 193.757 100.104 193.965C151.925 193.965 193.757 151.925 193.965 100.104C193.757 48.2832 151.925 6.24366 100.104 6.24366C48.0749 6.24366 6.2435 48.2832 6.2435 100.104ZM2.4974 100.104C2.4974 46.202 46.2019 2.49756 100.104 2.49756C154.006 2.49756 197.711 46.202 197.711 100.104C197.711 154.006 154.006 197.711 100.104 197.711C46.2019 197.503 2.4974 153.798 2.4974 100.104Z" fill="#06A64F"></path><path d="M30.8012 147.347L32.8824 131.53C33.0905 130.697 33.0905 130.073 33.0905 129.865C33.0905 129.449 33.2986 129.241 33.2986 129.032C33.5068 128.824 33.5068 128.616 33.923 128.616C34.1311 128.616 34.1311 128.616 34.3392 128.824C34.5473 129.032 34.5473 129.241 34.7555 129.657C34.7555 130.073 34.9636 130.281 34.9636 130.697C34.9636 130.905 34.9636 131.114 34.9636 131.53C34.9636 131.738 34.9636 132.154 34.9636 132.362C34.9636 132.57 34.9636 132.987 34.7555 133.195L32.4662 148.387C32.4662 149.012 32.2581 149.636 32.2581 150.052C32.2581 150.677 32.0499 151.093 32.0499 151.509C31.8418 151.925 31.8418 152.342 31.6337 152.55C31.4256 152.758 31.2175 152.966 31.0094 152.966C30.8012 152.966 30.5931 152.758 30.385 152.55C30.1769 152.342 30.1769 151.925 29.9688 151.509C29.7607 151.093 29.7607 150.677 29.7607 150.052C29.7607 149.428 29.5525 149.012 29.5525 148.387L27.0551 133.195C27.0551 132.987 27.0551 132.57 26.847 132.362C26.847 132.154 26.847 131.738 26.6389 131.53C26.6389 131.322 26.6389 130.905 26.6389 130.697C26.6389 130.073 26.6389 129.657 26.847 129.241C27.0551 128.824 27.2633 128.616 27.4714 128.616C27.8876 128.616 28.0957 128.824 28.0957 129.241C28.3038 129.657 28.3038 130.489 28.512 131.53L30.8012 147.347Z" fill="#06A64F"></path><path d="M38.0853 150.26C38.0853 151.093 38.0853 151.717 37.8772 152.341C37.6691 152.758 37.461 152.966 37.2529 152.966C37.0447 152.966 36.8366 152.758 36.6285 152.341C36.4204 151.925 36.4204 151.301 36.4204 150.468V137.981C36.4204 137.149 36.4204 136.525 36.6285 136.108C36.8366 135.692 37.0447 135.484 37.2529 135.484C37.461 135.484 37.6691 135.692 37.8772 136.108C38.0853 136.525 38.0853 137.149 38.0853 137.981V150.26ZM36.4204 132.57C36.2123 132.154 36.2123 131.738 36.2123 130.905C36.2123 130.281 36.2123 129.865 36.4204 129.449C36.6285 129.032 36.8366 128.824 37.0447 128.824C37.2529 128.824 37.461 129.032 37.6691 129.24C37.8772 129.657 37.8772 130.073 37.8772 130.905C37.8772 131.53 37.8772 132.154 37.6691 132.57C37.6691 132.987 37.461 133.195 37.0447 133.195C36.6285 133.195 36.6285 132.987 36.4204 132.57Z" fill="#06A64F"></path><path d="M44.3288 142.56C44.3288 141.103 44.1207 139.854 43.9126 139.23C43.7045 138.398 43.2882 138.189 42.872 138.189C42.4558 138.189 42.0395 138.606 41.8314 139.23C41.6233 140.062 41.4152 141.103 41.4152 142.56H44.3288ZM41.2071 145.057C41.2071 146.098 41.2071 146.93 41.4152 147.763C41.6233 148.595 41.8314 149.011 42.0395 149.428C42.2477 149.844 42.6639 150.052 42.872 150.052C43.0801 150.052 43.2882 150.052 43.4964 149.844C43.7045 149.844 43.9126 149.636 43.9126 149.22C44.1207 149.011 44.1207 148.595 44.3288 148.387C44.5369 148.179 44.5369 147.763 44.9532 147.138C44.9532 146.93 45.1613 146.93 45.3694 146.93C45.5775 146.93 45.7856 147.138 45.7856 147.347C45.9938 147.555 45.9938 147.971 45.9938 148.387C45.9938 148.803 45.9938 149.22 45.7856 149.844C45.5775 150.468 45.5775 150.885 45.1613 151.301C44.9532 151.717 44.5369 152.133 44.3288 152.549C43.9126 152.758 43.4964 152.966 43.0801 152.966C42.0395 152.966 40.999 152.133 40.3746 150.676C39.7503 149.011 39.5421 146.93 39.5421 144.225C39.5421 142.976 39.5421 141.727 39.7503 140.687C39.9584 139.646 40.1665 138.606 40.3746 137.981C40.5827 137.149 40.999 136.524 41.4152 136.108C41.8314 135.692 42.2477 135.484 42.872 135.484C43.4964 135.484 44.1207 135.9 44.5369 136.524C44.9532 137.149 45.3694 138.189 45.5775 139.23C45.7856 140.271 45.9938 141.519 45.9938 142.768C45.9938 143.809 45.7856 144.641 45.5775 144.849C45.3694 145.265 44.9532 145.265 44.5369 145.265H41.2071V145.057Z" fill="#06A64F"></path><path d="M47.8668 135.484V132.778C47.8668 132.154 47.8668 131.53 47.8668 131.113C47.8668 130.697 47.8668 130.489 48.0749 130.073C48.0749 129.865 48.283 129.448 48.283 129.24C48.4912 129.032 48.4912 129.032 48.6993 129.032C48.9074 129.032 49.1155 129.24 49.3236 129.657C49.5317 129.865 49.5317 130.281 49.5317 130.697C49.5317 131.113 49.5317 131.738 49.5317 132.362V135.276H50.1561C50.3642 135.276 50.5723 135.484 50.7804 135.692C50.9886 135.9 50.9886 136.316 50.9886 136.733C50.9886 137.357 50.9886 137.773 50.7804 137.981C50.5723 138.189 50.3642 138.397 49.948 138.397H49.5317V146.306C49.5317 146.93 49.5317 147.555 49.5317 147.971C49.5317 148.387 49.5317 148.595 49.7399 148.803C49.7399 149.011 49.948 149.22 50.1561 149.22C50.3642 149.22 50.3642 149.22 50.5723 149.011C50.7804 149.011 50.7804 148.803 50.9886 148.803C51.1967 148.803 51.1967 149.011 51.4048 149.22C51.6129 149.428 51.6129 149.844 51.6129 150.26C51.6129 150.884 51.4048 151.509 51.1967 151.925C50.9886 152.341 50.3642 152.549 49.948 152.549C49.3236 152.549 48.9074 152.341 48.6993 151.925C48.4912 151.509 48.283 150.884 48.0749 150.052C48.0749 149.22 47.8668 148.179 47.8668 146.722V138.397H47.6587C47.4506 138.397 47.2425 138.189 47.0343 137.981C46.8262 137.773 46.8262 137.357 46.8262 136.941C46.8262 136.524 46.8262 136.108 47.0343 135.9C47.2425 135.692 47.4506 135.484 47.8668 135.484Z" fill="#06A64F"></path><path d="M53.6941 137.982C53.9022 136.941 54.3184 136.317 54.7347 135.692C55.1509 135.276 55.5671 135.068 55.9834 135.068C56.3996 135.068 56.8158 135.276 57.2321 135.9C57.6483 136.317 57.8564 137.149 58.0645 137.982C58.2726 138.606 58.2726 139.022 58.2726 139.646C58.2726 140.271 58.2726 141.103 58.2726 141.936V150.052C58.2726 150.885 58.2726 151.509 58.0645 152.133C57.8564 152.55 57.6483 152.758 57.4402 152.758C57.2321 152.758 57.0239 152.55 56.8158 152.133C56.6077 151.717 56.6077 151.093 56.6077 150.26V142.976C56.6077 141.519 56.6077 140.479 56.3996 139.646C56.1915 138.814 55.9834 138.606 55.359 138.606C54.9428 138.606 54.7347 138.814 54.5265 139.23C54.3184 139.646 54.1103 140.271 53.9022 141.103C53.9022 141.728 53.6941 142.976 53.6941 144.641V150.052C53.6941 150.885 53.6941 151.509 53.486 152.133C53.2778 152.55 53.0697 152.758 52.8616 152.758C52.6535 152.758 52.4454 152.55 52.2373 152.133C52.0291 151.717 52.0291 151.093 52.0291 150.26V137.773C52.0291 136.941 52.0291 136.317 52.2373 135.9C52.4454 135.484 52.6535 135.276 52.8616 135.276C53.0697 135.276 53.0697 135.276 53.2778 135.484C53.486 135.692 53.486 135.9 53.486 136.317C53.486 136.733 53.6941 137.149 53.6941 137.565V137.982Z" fill="#06A64F"></path><path d="M63.2674 144.849C62.8512 145.057 62.435 145.266 62.2268 145.474C62.0187 145.682 61.8106 145.89 61.6025 146.098C61.3944 146.514 61.3944 146.931 61.3944 147.555C61.3944 148.179 61.3944 148.804 61.6025 149.22C61.8106 149.636 62.0187 149.844 62.435 149.844C62.8512 149.844 63.0593 149.636 63.4755 149.22C63.6837 148.804 63.8918 148.387 64.0999 147.763C64.308 147.139 64.308 146.098 64.308 144.433V143.809C64.0999 144.225 63.6837 144.641 63.2674 144.849ZM63.2674 152.133C62.8512 152.55 62.435 152.758 62.0187 152.758C61.6025 152.758 61.1863 152.55 60.77 152.133C60.3538 151.717 60.1457 151.093 59.9376 150.26C59.7294 149.428 59.7294 148.595 59.7294 147.763C59.7294 146.514 59.9376 145.474 60.1457 144.641C60.3538 143.809 60.77 143.184 61.3944 142.976C61.6025 142.976 61.8106 142.768 62.2268 142.56C62.6431 142.352 63.0593 142.144 63.2674 141.936C63.4755 141.728 63.8918 141.519 64.308 141.311C64.308 140.271 64.0999 139.23 64.0999 138.814C63.8918 138.19 63.6837 137.982 63.0593 137.982C62.6431 137.982 62.2268 138.19 62.0187 138.398C61.8106 138.606 61.6025 139.23 61.3944 139.855C61.1863 140.479 61.1863 140.895 60.9781 141.103C60.9781 141.311 60.77 141.311 60.5619 141.311C60.3538 141.311 60.1457 141.103 60.1457 140.895C59.9376 140.687 59.9376 140.271 59.9376 139.646C59.9376 138.814 60.1457 138.19 60.3538 137.357C60.5619 136.733 60.9781 136.108 61.3944 135.692C61.8106 135.276 62.435 135.068 63.0593 135.068C63.8918 135.068 64.5161 135.276 64.9324 135.692C65.3486 136.108 65.7648 136.941 65.7648 137.773C65.9729 138.814 65.9729 140.063 65.9729 141.728V144.225C65.9729 144.849 65.9729 145.682 65.9729 146.514C65.9729 147.347 65.9729 148.179 66.1811 149.012C66.1811 149.844 66.3892 150.468 66.3892 150.677C66.3892 151.093 66.3892 151.509 66.1811 151.925C65.9729 152.342 65.7648 152.55 65.5567 152.55C65.3486 152.55 65.1405 152.342 64.9324 151.925C64.7242 151.509 64.5161 150.885 64.308 150.052C64.0999 151.093 63.6837 151.717 63.2674 152.133Z" fill="#06A64F"></path><path d="M73.6733 150.052C73.6733 150.885 73.6733 151.717 73.4652 152.133C73.257 152.55 73.0489 152.758 72.8408 152.758C72.6327 152.758 72.4246 152.55 72.2165 152.133C72.0083 151.717 72.0083 151.093 72.0083 150.052V143.184C72.0083 142.144 72.0083 141.311 72.0083 140.687C72.0083 140.063 71.8002 139.646 71.8002 139.23C71.5921 138.814 71.384 138.606 71.1759 138.606C70.5515 138.606 70.1353 139.022 70.1353 140.063C69.9272 141.103 69.9272 142.352 69.9272 144.225V150.052C69.9272 150.885 69.9272 151.717 69.7191 152.133C69.5109 152.55 69.3028 152.758 69.0947 152.758C68.8866 152.758 68.6785 152.55 68.4704 152.133C68.2622 151.717 68.2622 151.093 68.2622 150.052V137.565C68.2622 136.733 68.2622 136.108 68.4704 135.692C68.6785 135.276 68.8866 135.068 69.0947 135.068C69.3028 135.068 69.5109 135.276 69.7191 135.692C69.9272 136.108 69.9272 136.733 69.9272 137.357V137.773C70.1353 136.941 70.5515 136.108 70.9678 135.692C71.384 135.276 71.8002 135.068 72.2165 135.068C72.6327 135.068 73.0489 135.276 73.4652 135.692C73.6733 136.108 74.0895 136.733 74.2976 137.773C74.5057 136.941 74.922 136.108 75.3382 135.692C75.7544 135.276 75.9626 135.068 76.3788 135.068C76.795 135.068 77.2112 135.276 77.6275 135.692C78.0437 136.108 78.2518 136.733 78.46 137.773C78.6681 138.606 78.6681 139.855 78.6681 141.519V150.052C78.6681 150.885 78.6681 151.717 78.46 152.133C78.2518 152.55 78.0437 152.758 77.8356 152.758C77.6275 152.758 77.4194 152.55 77.2112 152.133C77.0031 151.717 77.0031 151.093 77.0031 150.052V142.768C77.0031 141.728 77.0031 141.103 77.0031 140.479C77.0031 139.855 76.795 139.438 76.795 139.022C76.5869 138.606 76.3788 138.398 76.1707 138.398C75.9625 138.398 75.7544 138.606 75.5463 138.814C75.3382 139.23 75.1301 139.646 75.1301 140.271C74.922 141.103 74.922 142.352 74.922 144.225V150.052H73.6733Z" fill="#06A64F"></path><path d="M84.7034 132.57V139.022H86.3684C86.7846 139.022 87.2008 139.022 87.6171 138.814C87.8252 138.606 88.2414 138.397 88.2414 137.773C88.4495 137.357 88.4495 136.733 88.4495 135.9C88.4495 135.276 88.4495 134.651 88.2414 134.235C88.0333 133.819 87.8252 133.403 87.6171 133.195C87.409 132.986 86.9927 132.778 86.3684 132.778H84.7034V132.57ZM84.7034 142.352V149.844C84.7034 150.884 84.7034 151.509 84.4953 151.925C84.2872 152.341 84.0791 152.549 83.871 152.549C83.6629 152.549 83.2466 152.341 83.2466 151.925C83.0385 151.509 83.0385 150.676 83.0385 149.844V131.946C83.0385 130.905 83.0385 130.281 83.2466 129.657C83.4547 129.24 83.6629 129.032 84.0791 129.032H87.2008C87.6171 129.032 88.0333 129.032 88.2414 129.24C88.4495 129.24 88.8658 129.448 89.0739 129.865C89.282 130.073 89.6982 130.697 89.9064 131.113C90.1145 131.738 90.3226 132.362 90.5307 133.195C90.7388 134.027 90.7388 134.859 90.7388 135.692C90.7388 137.357 90.5307 138.814 90.1145 139.854C89.6982 140.895 89.0739 141.727 88.2414 142.144C88.6577 142.56 88.8658 143.184 89.282 144.017C89.4901 144.849 89.9064 145.89 90.1145 146.722C90.3226 147.763 90.5307 148.595 90.7388 149.428C90.9469 150.26 90.9469 150.676 90.9469 151.093C90.9469 151.301 90.9469 151.717 90.7388 151.925C90.7388 152.133 90.5307 152.549 90.3226 152.549C90.1145 152.758 90.1145 152.758 89.9064 152.758C89.6982 152.758 89.4901 152.549 89.282 152.341C89.0739 152.133 89.0739 151.717 88.8658 151.509C88.6577 151.093 88.6577 150.468 88.4495 149.844L87.6171 146.722C87.409 145.473 87.2008 144.641 86.7846 144.017C86.5765 143.392 86.3684 142.976 86.1603 142.768C85.9521 142.56 85.744 142.352 85.3278 142.352H84.7034Z" fill="#06A64F"></path><path d="M96.5661 149.844C96.358 150.468 96.1498 151.093 95.9417 151.509C95.7336 151.925 95.5255 152.341 95.1093 152.549C94.9012 152.758 94.4849 152.966 94.2768 152.966C93.8606 152.966 93.4443 152.758 93.2362 152.341C92.82 151.925 92.6119 151.301 92.4038 150.468C92.1956 149.636 91.9875 148.179 91.9875 146.514V137.981C91.9875 137.149 91.9875 136.524 92.1956 136.108C92.4037 135.692 92.6119 135.484 92.82 135.484C93.0281 135.484 93.2362 135.692 93.4443 136.108C93.6525 136.524 93.6524 137.149 93.6524 137.981V144.849C93.6524 145.89 93.6524 146.722 93.8606 147.347C93.8606 147.971 94.0687 148.595 94.2768 149.011C94.4849 149.428 94.693 149.636 94.9011 149.636C95.3174 149.636 95.5255 149.428 95.7336 149.011C95.9417 148.595 96.1498 147.971 96.358 147.347C96.358 146.722 96.5661 145.473 96.5661 143.392V138.189C96.5661 137.357 96.5661 136.733 96.7742 136.316C96.9823 135.9 97.1904 135.692 97.3985 135.692C97.6067 135.692 97.8148 135.9 98.0229 136.316C98.231 136.733 98.231 137.357 98.231 138.189V150.885C98.231 151.717 98.231 152.341 98.0229 152.758C97.8148 153.174 97.6067 153.382 97.3985 153.382C97.1904 153.382 96.9823 153.174 96.7742 152.758C96.5661 152.341 96.5661 151.717 96.5661 150.885V149.844Z" fill="#06A64F"></path><path d="M102.185 147.971C102.393 149.012 103.018 149.428 103.434 149.428C103.85 149.428 104.266 149.012 104.475 147.971C104.891 146.93 104.891 145.682 104.891 143.809C104.891 142.768 104.891 141.728 104.683 140.895C104.474 140.063 104.266 139.438 104.058 139.022C103.85 138.606 103.434 138.398 103.226 138.398C102.81 138.398 102.601 138.606 102.393 139.022C102.185 139.438 101.977 140.063 101.977 141.103C101.769 141.936 101.769 142.976 101.769 144.225C101.769 145.89 101.769 147.139 102.185 147.971ZM101.561 137.773C101.977 136.941 102.185 136.317 102.601 135.9C103.018 135.484 103.434 135.276 103.85 135.276C104.475 135.276 104.891 135.692 105.307 136.317C105.723 136.941 106.139 137.981 106.348 139.23C106.556 140.479 106.764 142.144 106.764 143.809C106.764 145.057 106.764 146.306 106.556 147.347C106.348 148.387 106.139 149.428 105.931 150.26C105.723 151.093 105.307 151.717 105.099 152.133C104.683 152.55 104.266 152.758 103.85 152.758C103.642 152.758 103.226 152.758 103.018 152.55C102.81 152.342 102.601 152.133 102.393 151.925C102.185 151.717 102.185 151.509 101.977 151.093C101.769 150.677 101.769 150.468 101.561 149.844V150.26C101.561 151.093 101.561 151.717 101.353 152.133C101.145 152.55 100.937 152.758 100.728 152.758C100.52 152.758 100.312 152.55 100.104 152.133C99.8959 151.717 99.8959 151.093 99.8959 150.26V131.322C99.8959 130.489 99.8959 129.657 100.104 129.241C100.312 128.824 100.52 128.616 100.728 128.616C100.937 128.616 101.145 128.824 101.353 129.241C101.561 129.657 101.561 130.281 101.561 131.114V137.773Z" fill="#06A64F"></path><path d="M110.302 147.971C110.51 149.012 111.134 149.428 111.55 149.428C111.967 149.428 112.383 149.012 112.591 147.971C113.007 146.93 113.007 145.682 113.007 143.809C113.007 142.768 113.007 141.728 112.799 140.895C112.591 140.063 112.383 139.438 112.175 139.022C111.967 138.606 111.55 138.398 111.342 138.398C110.926 138.398 110.718 138.606 110.51 139.022C110.302 139.438 110.094 140.063 109.886 140.895C109.677 141.728 109.677 142.768 109.677 144.017C109.886 145.89 110.094 147.139 110.302 147.971ZM109.677 137.773C110.094 136.941 110.302 136.317 110.718 135.9C111.134 135.484 111.55 135.276 111.967 135.276C112.591 135.276 113.007 135.692 113.424 136.317C113.84 136.941 114.256 137.981 114.464 139.23C114.672 140.479 114.88 142.144 114.88 143.809C114.88 145.057 114.88 146.306 114.672 147.347C114.464 148.387 114.256 149.428 114.048 150.26C113.84 151.093 113.424 151.717 113.215 152.133C112.799 152.55 112.383 152.758 111.967 152.758C111.759 152.758 111.342 152.758 111.134 152.55C110.926 152.342 110.718 152.133 110.51 151.925C110.302 151.717 110.302 151.509 110.094 151.093C109.886 150.885 109.886 150.468 109.677 149.844V150.26C109.677 151.093 109.677 151.717 109.469 152.133C109.261 152.55 109.053 152.758 108.845 152.758C108.637 152.758 108.429 152.55 108.221 152.133C108.221 151.717 108.221 151.093 108.221 150.26V131.322C108.221 130.489 108.221 129.657 108.429 129.241C108.637 128.824 108.845 128.616 109.053 128.616C109.261 128.616 109.469 128.824 109.677 129.241C109.886 129.657 109.886 130.281 109.886 131.114V137.773H109.677Z" fill="#06A64F"></path><path d="M120.916 142.56C120.916 141.103 120.708 139.854 120.499 139.23C120.291 138.398 119.875 138.189 119.459 138.189C119.043 138.189 118.626 138.606 118.418 139.23C118.21 140.062 118.002 141.103 118.002 142.56H120.916ZM117.794 145.057C117.794 146.098 117.794 146.93 118.002 147.763C118.21 148.595 118.418 149.011 118.626 149.428C118.835 149.844 119.251 150.052 119.459 150.052C119.667 150.052 119.875 150.052 120.083 149.844C120.291 149.844 120.499 149.636 120.499 149.22C120.708 149.011 120.916 148.595 120.916 148.387C121.124 148.179 121.124 147.763 121.54 147.138C121.54 146.93 121.748 146.93 121.956 146.93C122.164 146.93 122.373 147.138 122.373 147.347C122.581 147.555 122.581 147.971 122.581 148.387C122.581 148.803 122.581 149.22 122.373 149.844C122.164 150.468 121.956 150.885 121.748 151.301C121.54 151.717 121.124 152.133 120.916 152.549C120.499 152.758 120.083 152.966 119.667 152.966C118.626 152.966 117.586 152.133 116.961 150.676C116.337 149.011 116.129 146.93 116.129 144.225C116.129 142.976 116.129 141.727 116.337 140.687C116.545 139.646 116.753 138.606 116.961 137.981C117.17 137.149 117.586 136.524 118.002 136.108C118.418 135.692 118.835 135.484 119.459 135.484C120.083 135.484 120.708 135.9 121.124 136.524C121.54 137.149 121.956 138.189 122.164 139.23C122.373 140.271 122.581 141.519 122.581 142.768C122.581 143.809 122.373 144.641 122.164 144.849C121.956 145.265 121.54 145.265 121.124 145.265H117.794V145.057Z" fill="#06A64F"></path><path d="M125.911 150.26C125.911 151.093 125.911 151.717 125.702 152.341C125.494 152.758 125.286 152.966 125.078 152.966C124.87 152.966 124.662 152.758 124.454 152.341C124.246 151.925 124.246 151.301 124.246 150.26V138.19C124.246 136.316 124.454 135.276 125.078 135.276C125.286 135.276 125.494 135.484 125.702 135.9C125.911 136.316 125.911 136.941 125.911 137.981C126.119 137.149 126.327 136.316 126.535 135.9C126.743 135.484 126.951 135.276 127.367 135.276C127.784 135.276 127.992 135.484 128.408 135.9C128.824 136.316 128.824 136.941 128.824 137.773C128.824 138.398 128.824 138.814 128.616 139.022C128.408 139.438 128.408 139.438 128.2 139.438C128.2 139.438 127.992 139.23 127.784 139.23C127.575 139.022 127.367 139.022 127.159 139.022C126.951 139.022 126.743 139.23 126.535 139.438C126.327 139.854 126.327 140.271 126.119 140.895C126.119 141.519 125.911 142.352 125.911 143.184C125.911 144.017 125.911 145.265 125.911 146.514V150.26Z" fill="#06A64F"></path><path d="M141.727 147.347C141.727 147.971 141.727 148.387 141.727 148.803C141.727 149.22 141.519 149.428 141.519 149.844C141.311 150.052 141.311 150.468 141.103 150.676C140.479 151.509 140.062 151.925 139.438 152.341C138.814 152.758 138.398 152.966 137.773 152.966C137.149 152.966 136.316 152.758 135.9 152.133C135.276 151.509 134.86 150.676 134.443 149.636C134.027 148.595 133.611 147.347 133.403 145.89C133.195 144.433 132.986 142.768 132.986 140.895C132.986 139.022 132.986 137.357 133.403 135.9C133.611 134.443 134.027 133.195 134.443 132.154C134.86 131.113 135.276 130.281 135.9 129.657C136.524 129.032 137.149 128.824 137.981 128.824C138.606 128.824 139.23 129.032 139.646 129.449C140.062 129.865 140.479 130.489 140.895 131.113C141.103 131.738 141.519 132.362 141.519 133.195C141.727 133.819 141.727 134.443 141.727 135.068C141.727 135.692 141.727 136.108 141.519 136.525C141.311 136.941 141.103 137.149 140.895 137.149C140.687 137.149 140.687 137.149 140.479 136.941C140.271 136.733 140.271 136.525 140.271 136.316C140.062 135.484 139.854 134.651 139.646 134.235C139.438 133.819 139.23 133.403 139.022 132.987C138.814 132.778 138.398 132.57 137.981 132.57C137.565 132.57 137.149 132.778 136.733 133.195C136.316 133.611 136.108 134.027 135.9 134.86C135.692 135.484 135.484 136.525 135.276 137.565C135.068 138.606 135.068 139.646 135.068 141.103C135.068 143.809 135.276 145.89 135.9 147.347C136.316 148.803 137.149 149.636 137.981 149.636C138.398 149.636 138.814 149.428 139.23 149.22C139.646 149.012 140.062 148.595 140.479 147.971V144.225H139.022C138.606 144.225 138.398 144.017 138.189 143.809C137.981 143.6 137.981 142.976 137.981 142.352C137.981 141.727 137.981 141.311 138.189 141.103C138.398 140.687 138.606 140.479 138.814 140.479H140.895C141.103 140.479 141.311 140.479 141.519 140.687C141.727 140.895 141.935 141.103 141.935 141.519C142.144 141.936 142.144 142.56 142.144 143.392V147.347H141.727Z" fill="#06A64F"></path><path d="M145.265 150.26C145.265 151.093 145.265 151.717 145.057 152.341C144.849 152.758 144.641 152.966 144.433 152.966C144.225 152.966 144.017 152.758 143.809 152.341C143.6 151.925 143.6 151.301 143.6 150.26V138.19C143.6 136.316 143.809 135.276 144.433 135.276C144.641 135.276 144.849 135.484 145.057 135.9C145.265 136.316 145.265 136.941 145.265 137.981C145.473 137.149 145.682 136.316 145.89 135.9C146.098 135.484 146.306 135.276 146.722 135.276C147.138 135.276 147.347 135.484 147.763 135.9C148.179 136.316 148.179 136.941 148.179 137.773C148.179 138.398 148.179 138.814 147.971 139.022C147.763 139.23 147.763 139.438 147.555 139.438C147.555 139.438 147.347 139.23 147.138 139.23C146.93 139.022 146.722 139.022 146.514 139.022C146.306 139.022 146.098 139.23 145.89 139.438C145.682 139.854 145.682 140.271 145.473 140.895C145.473 141.519 145.265 142.352 145.265 143.184C145.265 144.017 145.265 145.265 145.265 146.514V150.26Z" fill="#06A64F"></path><path d="M153.382 139.854C153.174 138.814 152.758 138.398 152.133 138.398C151.717 138.398 151.509 138.606 151.301 139.022C151.093 139.438 150.884 140.063 150.676 140.895C150.468 141.727 150.468 142.768 150.468 143.809C150.468 144.849 150.468 145.89 150.676 146.722C150.884 147.555 151.093 148.179 151.301 148.595C151.509 149.012 151.925 149.22 152.133 149.22C152.758 149.22 153.174 148.803 153.382 147.763C153.798 146.722 153.798 145.474 153.798 143.601C154.006 142.144 153.798 140.895 153.382 139.854ZM155.463 147.555C155.255 148.595 155.047 149.636 154.839 150.26C154.422 151.093 154.214 151.717 153.798 152.133C153.382 152.55 152.966 152.758 152.341 152.758C151.717 152.758 151.301 152.55 150.884 152.133C150.468 151.717 150.052 151.093 149.844 150.26C149.636 149.428 149.22 148.595 149.22 147.555C149.011 146.514 149.011 145.265 149.011 144.017C149.011 142.768 149.011 141.519 149.22 140.479C149.428 139.438 149.636 138.398 149.844 137.773C150.052 136.941 150.468 136.316 150.884 135.9C151.301 135.484 151.717 135.276 152.341 135.276C152.966 135.276 153.382 135.484 153.798 135.9C154.214 136.316 154.631 136.941 154.839 137.773C155.047 138.606 155.463 139.438 155.463 140.479C155.671 141.519 155.671 142.768 155.671 144.017C155.671 145.265 155.671 146.514 155.463 147.555Z" fill="#06A64F"></path><path d="M161.498 149.844C161.29 150.468 161.082 151.093 160.874 151.509C160.666 151.925 160.458 152.341 160.042 152.549C159.834 152.758 159.417 152.966 159.209 152.966C158.793 152.966 158.377 152.758 158.169 152.341C157.752 151.925 157.544 151.301 157.336 150.468C157.128 149.636 156.92 148.179 156.92 146.514V137.981C156.92 137.149 156.92 136.524 157.128 136.108C157.336 135.692 157.544 135.484 157.752 135.484C157.96 135.484 158.169 135.692 158.377 136.108C158.585 136.524 158.585 137.149 158.585 137.981V144.849C158.585 145.89 158.585 146.722 158.585 147.347C158.585 147.971 158.793 148.595 159.001 149.011C159.209 149.428 159.417 149.636 159.834 149.636C160.042 149.636 160.458 149.428 160.666 149.011C160.874 148.595 161.082 147.971 161.29 147.347C161.29 146.722 161.498 145.473 161.498 143.392V138.189C161.498 137.357 161.498 136.733 161.707 136.316C161.915 135.9 162.123 135.692 162.331 135.692C162.539 135.692 162.747 135.9 162.955 136.316C163.163 136.733 163.163 137.357 163.163 138.189V150.885C163.163 151.717 163.163 152.341 162.955 152.758C162.747 153.174 162.539 153.382 162.331 153.382C162.123 153.382 161.915 153.174 161.707 152.758C161.498 152.341 161.498 151.717 161.498 150.885V149.844Z" fill="#06A64F"></path><path d="M169.823 140.895C169.615 140.063 169.407 139.438 169.199 139.022C168.991 138.606 168.574 138.398 168.366 138.398C167.95 138.398 167.534 138.814 167.118 139.855C166.701 140.895 166.701 142.144 166.701 144.017C166.701 145.682 166.909 147.139 167.118 147.971C167.534 149.012 167.95 149.428 168.366 149.428C168.574 149.428 168.991 149.22 169.199 148.804C169.407 148.387 169.615 147.763 169.823 146.931C170.031 146.098 170.031 145.057 170.031 143.809C170.031 142.768 169.823 141.728 169.823 140.895ZM166.493 138.19C166.909 137.149 167.118 136.525 167.534 135.9C167.95 135.484 168.366 135.276 168.783 135.276C169.407 135.276 169.823 135.692 170.239 136.317C170.656 136.941 171.072 137.981 171.28 139.438C171.488 140.687 171.696 142.352 171.696 144.225C171.696 145.474 171.696 146.722 171.488 147.971C171.28 149.012 171.072 150.052 170.864 150.677C170.656 151.509 170.239 152.133 170.031 152.342C169.615 152.758 169.199 152.966 168.783 152.966C168.366 152.966 167.95 152.758 167.534 152.133C167.118 151.717 166.909 150.885 166.493 149.844V156.296C166.493 158.169 166.285 159.209 165.661 159.209C165.245 159.209 165.036 159.001 165.036 158.377C164.828 157.961 164.828 157.128 164.828 156.296V137.565C164.828 136.733 164.828 136.108 165.036 135.692C165.245 135.276 165.453 135.068 165.661 135.068C165.869 135.068 166.077 135.276 166.285 135.692C166.493 136.108 166.493 136.733 166.493 137.565V138.19Z" fill="#06A64F"></path><path d="M120.499 88.4496C120.499 88.4496 120.291 71.1759 113.84 57.8565C108.012 45.9938 97.8148 43.4965 90.9469 36.8367C81.5817 28.3039 77.8356 18.5225 77.8356 18.5225C77.8356 18.5225 75.5463 44.3289 97.8148 57.8565C120.083 71.3841 116.337 76.1707 120.499 88.4496Z" fill="#06A64F"></path><path d="M120.499 111.134C120.499 111.134 120.291 93.8605 113.84 80.5411C108.012 68.6784 97.8148 66.181 90.9469 59.5213C81.5817 50.9885 77.8356 41.207 77.8356 41.207C77.8356 41.207 75.5463 67.0135 97.8148 80.5411C120.083 94.0686 116.337 98.8553 120.499 111.134Z" fill="#06A64F"></path><path d="M120.499 133.611C120.499 133.611 120.291 116.337 113.84 103.018C108.012 91.155 97.8148 88.6576 90.9469 81.9979C81.5817 73.4651 77.8356 63.6836 77.8356 63.6836C77.8356 63.6836 75.5463 89.49 97.8148 103.018C120.083 116.545 116.337 121.332 120.499 133.611Z" fill="#06A64F"></path></g><defs><clipPath id="clip0_2023_4131"><rect width="200" height="200" fill="white"></rect></clipPath></defs></svg>